<svg xmlns="http://www.w3.org/2000/svg" width="16" height="16" viewBox="0 0 16 16" shape-rendering="crispEdges">
  <!-- Speaker body -->
  <rect x="2" y="5" width="1" height="6" fill="black"/>
  <rect x="3" y="5" width="1" height="6" fill="black"/>
  <rect x="4" y="5" width="1" height="6" fill="black"/>
  <!-- Speaker cone -->
  <rect x="5" y="4" width="1" height="1" fill="black"/>
  <rect x="5" y="11" width="1" height="1" fill="black"/>
  <rect x="6" y="3" width="1" height="1" fill="black"/>
  <rect x="6" y="12" width="1" height="1" fill="black"/>
  <rect x="7" y="2" width="1" height="1" fill="black"/>
  <rect x="7" y="13" width="1" height="1" fill="black"/>
  <rect x="8" y="1" width="1" height="14" fill="black"/>
  <!-- Sound waves -->
  <rect x="10" y="6" width="1" height="1" fill="black"/>
  <rect x="10" y="9" width="1" height="1" fill="black"/>
  <rect x="11" y="7" width="1" height="2" fill="black"/>
  <rect x="12" y="4" width="1" height="1" fill="black"/>
  <rect x="12" y="11" width="1" height="1" fill="black"/>
  <rect x="13" y="5" width="1" height="2" fill="black"/>
  <rect x="13" y="9" width="1" height="2" fill="black"/>
  <rect x="14" y="7" width="1" height="2" fill="black"/>
</svg>