<svg xmlns="http://www.w3.org/2000/svg" width="16" height="16" viewBox="0 0 16 16" shape-rendering="crispEdges">
  <!-- Solid speaker body (filled rectangle) -->
  <rect x="1" y="5" width="4" height="6" fill="black"/>
  <!-- Solid speaker cone (filled triangle) -->
  <rect x="5" y="4" width="1" height="8" fill="black"/>
  <rect x="6" y="3" width="1" height="10" fill="black"/>
  <rect x="7" y="2" width="1" height="12" fill="black"/>
  <rect x="8" y="1" width="1" height="14" fill="black"/>
  <!-- X mark for muted (solid diagonal cross) -->
  <rect x="10" y="4" width="1" height="1" fill="black"/>
  <rect x="11" y="5" width="1" height="1" fill="black"/>
  <rect x="12" y="6" width="1" height="1" fill="black"/>
  <rect x="13" y="7" width="1" height="2" fill="black"/>
  <rect x="12" y="9" width="1" height="1" fill="black"/>
  <rect x="11" y="10" width="1" height="1" fill="black"/>
  <rect x="10" y="11" width="1" height="1" fill="black"/>
  <rect x="14" y="4" width="1" height="1" fill="black"/>
  <rect x="13" y="5" width="1" height="1" fill="black"/>
  <rect x="11" y="9" width="1" height="1" fill="black"/>
  <rect x="13" y="9" width="1" height="1" fill="black"/>
  <rect x="14" y="10" width="1" height="1" fill="black"/>
  <rect x="12" y="7" width="1" height="2" fill="black"/>
</svg>
